<svg id="Layer_1" data-name="Layer 1" xmlns="http://www.w3.org/2000/svg" viewBox="0 0 600 300"><defs><style>.cls-1{fill:#ffa9c2;}.cls-2{fill:#ff83a7;}.cls-3{fill:#fff;}</style></defs><rect class="cls-1" width="600" height="300"/><path class="cls-2" d="M104.07,328.32c-15.35,0-26.8-11.36-26.8-26.44s11.45-26.51,26.8-26.51c13.21,0,23.44,8.71,25.49,21.5H115.49a11.93,11.93,0,0,0-11.39-8.53c-7.14,0-12.38,5.74-12.38,13.54S97,315.31,104.1,315.31c5.59,0,10-3.64,11.4-9.24h14.2c-1.92,13.25-12.21,22.25-25.63,22.25Z" transform="translate(0 -150)"/><path class="cls-2" d="M168.35,314.33V327h-32v-50.4h14.07v37.69Z" transform="translate(0 -150)"/><path class="cls-2" d="M173,307.54v-30.9h14.19v30.65c0,4.92,3.17,8.11,7.81,8.11s7.81-3.19,7.81-8.11V276.64H217v30.9c0,12.41-9.15,20.78-22,20.78S173,320,173,307.54Z" transform="translate(0 -150)"/><path class="cls-2" d="M258.05,300.43a13.25,13.25,0,0,1,7.73,12.26c0,8.17-7,14.35-16.35,14.35H226.19v-50.4H249c8.94,0,15.46,5.45,15.46,12.9a12.84,12.84,0,0,1-6.37,10.89Zm-6.81-8.59c0-2.62-1.79-4.39-4.69-4.39h-7v8.78h7c2.9,0,4.69-1.77,4.69-4.39ZM252,311c0-2.68-2-4.56-5-4.56h-7.54v9.16h7.54C250.08,315.64,252,313.76,252,311Z" transform="translate(0 -150)"/><path class="cls-2" d="M272.53,307.54v-30.9h14.19v30.65c0,4.92,3.18,8.11,7.81,8.11s7.81-3.19,7.81-8.11V276.64h14.2v30.9c0,12.41-9.16,20.78-22,20.78S272.53,320,272.53,307.54Z" transform="translate(0 -150)"/><path class="cls-2" d="M357.62,300.43a13.25,13.25,0,0,1,7.73,12.26c0,8.17-7,14.35-16.35,14.35H325.77v-50.4h22.77c8.93,0,15.46,5.45,15.46,12.9a12.84,12.84,0,0,1-6.38,10.89Zm-6.8-8.59c0-2.62-1.79-4.39-4.7-4.39h-7v8.78h7c2.91,0,4.7-1.77,4.7-4.39Zm.8,19.2c0-2.68-2-4.56-5-4.56H339.1v9.16h7.55C349.65,315.64,351.62,313.76,351.62,311Z" transform="translate(0 -150)"/><path class="cls-2" d="M404.5,300.43a13.26,13.26,0,0,1,7.72,12.26c0,8.17-7,14.35-16.35,14.35H372.64v-50.4h22.77c8.94,0,15.46,5.45,15.46,12.9a12.84,12.84,0,0,1-6.38,10.89Zm-6.81-8.59c0-2.62-1.79-4.39-4.7-4.39h-7v8.78h7c2.91,0,4.7-1.77,4.7-4.39Zm.8,19.2c0-2.68-2-4.56-5-4.56H386v9.16h7.55C396.52,315.64,398.49,313.76,398.49,311Z" transform="translate(0 -150)"/><path class="cls-2" d="M451.52,314.33V327h-32v-50.4h14.07v37.69Z" transform="translate(0 -150)"/><path class="cls-2" d="M490.6,315v12H457.74v-50.4H490v12H471.57v7.42h16.55v11.39H471.57V315Z" transform="translate(0 -150)"/><path class="cls-2" d="M496.11,310.77h14.33c0,3.6,2.78,5.35,5.94,5.35,2.91,0,5.69-1.55,5.69-4.3,0-3.16-3.92-4.08-8.72-5.24-7.29-1.81-16.59-4-16.59-15.52,0-9.93,7.29-15.61,19.18-15.61,12.08,0,19,6.2,19,16.46H521c0-3.19-2.38-4.69-5.26-4.69-2.47,0-4.85,1.08-4.85,3.43,0,2.86,3.8,3.81,8.55,5,7.42,1.92,17.12,4.39,17.12,15.9,0,11-8.46,16.73-20.17,16.73C504.09,328.28,496.11,321.75,496.11,310.77Z" transform="translate(0 -150)"/><path class="cls-3" d="M97.07,320.32c-15.35,0-26.8-11.36-26.8-26.44s11.45-26.51,26.8-26.51c13.21,0,23.44,8.71,25.49,21.5H108.49a11.93,11.93,0,0,0-11.39-8.53c-7.14,0-12.38,5.74-12.38,13.54S90,307.31,97.1,307.31c5.59,0,10-3.64,11.4-9.24h14.2c-1.92,13.25-12.21,22.25-25.63,22.25Z" transform="translate(0 -150)"/><path class="cls-3" d="M161.35,306.33V319h-32v-50.4h14.07v37.69Z" transform="translate(0 -150)"/><path class="cls-3" d="M166,299.54v-30.9h14.19v30.65c0,4.92,3.17,8.11,7.81,8.11s7.81-3.19,7.81-8.11V268.64H210v30.9c0,12.41-9.15,20.78-22,20.78S166,312,166,299.54Z" transform="translate(0 -150)"/><path class="cls-3" d="M251.05,292.43a13.25,13.25,0,0,1,7.73,12.26c0,8.17-7,14.35-16.35,14.35H219.19v-50.4H242c8.94,0,15.46,5.45,15.46,12.9a12.84,12.84,0,0,1-6.37,10.89Zm-6.81-8.59c0-2.62-1.79-4.39-4.69-4.39h-7v8.78h7c2.9,0,4.69-1.77,4.69-4.39ZM245,303c0-2.68-2-4.56-5-4.56h-7.54v9.16h7.54C243.08,307.64,245,305.76,245,303Z" transform="translate(0 -150)"/><path class="cls-3" d="M265.53,299.54v-30.9h14.19v30.65c0,4.92,3.18,8.11,7.81,8.11s7.81-3.19,7.81-8.11V268.64h14.2v30.9c0,12.41-9.16,20.78-22,20.78S265.53,312,265.53,299.54Z" transform="translate(0 -150)"/><path class="cls-3" d="M350.62,292.43a13.25,13.25,0,0,1,7.73,12.26c0,8.17-7,14.35-16.35,14.35H318.77v-50.4h22.77c8.93,0,15.46,5.45,15.46,12.9a12.84,12.84,0,0,1-6.38,10.89Zm-6.8-8.59c0-2.62-1.79-4.39-4.7-4.39h-7v8.78h7c2.91,0,4.7-1.77,4.7-4.39Zm.8,19.2c0-2.68-2-4.56-5-4.56H332.1v9.16h7.55C342.65,307.64,344.62,305.76,344.62,303Z" transform="translate(0 -150)"/><path class="cls-3" d="M397.5,292.43a13.26,13.26,0,0,1,7.72,12.26c0,8.17-7,14.35-16.35,14.35H365.64v-50.4h22.77c8.94,0,15.46,5.45,15.46,12.9a12.84,12.84,0,0,1-6.38,10.89Zm-6.81-8.59c0-2.62-1.79-4.39-4.7-4.39h-7v8.78h7c2.91,0,4.7-1.77,4.7-4.39Zm.8,19.2c0-2.68-2-4.56-5-4.56H379v9.16h7.55C389.52,307.64,391.49,305.76,391.49,303Z" transform="translate(0 -150)"/><path class="cls-3" d="M444.52,306.33V319h-32v-50.4h14.07v37.69Z" transform="translate(0 -150)"/><path class="cls-3" d="M483.6,307v12H450.74v-50.4H483v12H464.57v7.42h16.55v11.39H464.57V307Z" transform="translate(0 -150)"/><path class="cls-3" d="M489.11,302.77h14.33c0,3.6,2.78,5.35,5.94,5.35,2.91,0,5.69-1.55,5.69-4.3,0-3.16-3.92-4.08-8.72-5.24-7.29-1.81-16.59-4-16.59-15.52,0-9.93,7.29-15.61,19.18-15.61,12.08,0,19,6.2,19,16.46H514c0-3.19-2.38-4.69-5.26-4.69-2.47,0-4.85,1.08-4.85,3.43,0,2.86,3.8,3.81,8.55,5,7.42,1.92,17.12,4.39,17.12,15.9,0,11-8.46,16.73-20.17,16.73C497.09,320.28,489.11,313.75,489.11,302.77Z" transform="translate(0 -150)"/></svg>