<svg id="Layer_1" data-name="Layer 1" xmlns="http://www.w3.org/2000/svg" viewBox="0 0 600 200"><defs><style>.cls-1{fill:#ffa9c2;}.cls-2{fill:#ff83a7;}.cls-3{fill:#fff;}</style></defs><rect class="cls-1" width="600" height="200"/><path class="cls-2" d="M120.11,298.32c0-12.06,9.11-21.09,21.31-21.09,10.5,0,18.63,6.94,20.26,17.1H150.5a9.49,9.49,0,0,0-9.06-6.78c-5.67,0-9.84,4.56-9.84,10.77S135.77,309,141.44,309a9.21,9.21,0,0,0,9.06-7.35h11.3c-1.53,10.53-9.71,17.69-20.38,17.69C129.22,319.34,120.11,310.31,120.11,298.32Z" transform="translate(0 -200)"/><path class="cls-2" d="M192.53,308.21v10.11H167.08V278.25h11.19v30Z" transform="translate(0 -200)"/><path class="cls-2" d="M196.2,302.82V278.25h11.28v24.36c0,3.92,2.52,6.45,6.21,6.45s6.21-2.53,6.21-6.45V278.25h11.29v24.57c0,9.86-7.28,16.52-17.5,16.52S196.2,312.68,196.2,302.82Z" transform="translate(0 -200)"/><path class="cls-2" d="M263.86,297.16a10.55,10.55,0,0,1,6.14,9.75c0,6.49-5.6,11.41-13,11.41H238.53V278.25h18.1c7.11,0,12.29,4.33,12.29,10.25a10.19,10.19,0,0,1-5.06,8.66Zm-4.78,8.44c0-2.13-1.56-3.63-3.95-3.63h-6v7.29h6A3.61,3.61,0,0,0,259.08,305.6Zm-.64-15.27a3.39,3.39,0,0,0-3.73-3.49h-5.58v7h5.58a3.39,3.39,0,0,0,3.73-3.49Z" transform="translate(0 -200)"/><path class="cls-2" d="M275.37,302.82V278.25h11.29v24.36c0,3.92,2.52,6.45,6.21,6.45s6.21-2.53,6.21-6.45V278.25h11.28v24.57c0,9.86-7.28,16.52-17.49,16.52S275.37,312.68,275.37,302.82Z" transform="translate(0 -200)"/><path class="cls-2" d="M343,297.16a10.54,10.54,0,0,1,6.15,9.75c0,6.49-5.6,11.41-13,11.41H317.71V278.25h18.1c7.11,0,12.29,4.33,12.29,10.25a10.2,10.2,0,0,1-5.07,8.66Zm-4.77,8.44c0-2.13-1.56-3.63-3.95-3.63h-6v7.29h6A3.61,3.61,0,0,0,338.26,305.6Zm-4.37-18.76h-5.58v7h5.58a3.5,3.5,0,1,0,0-7Z" transform="translate(0 -200)"/><path class="cls-2" d="M380.3,297.16a10.54,10.54,0,0,1,6.15,9.75c0,6.49-5.6,11.41-13,11.41H355V278.25h18.1c7.1,0,12.29,4.33,12.29,10.25a10.2,10.2,0,0,1-5.07,8.66Zm-4.77,8.44c0-2.13-1.56-3.63-3.95-3.63h-6v7.29h6A3.61,3.61,0,0,0,375.53,305.6Zm-4.37-18.76h-5.58v7h5.58a3.5,3.5,0,1,0,0-7Z" transform="translate(0 -200)"/><path class="cls-2" d="M417.7,308.21v10.11H392.25V278.25h11.18v30Z" transform="translate(0 -200)"/><path class="cls-2" d="M448.77,308.75v9.57H422.65V278.25h25.64v9.54H433.64v5.9H446.8v9.06H433.64v6Z" transform="translate(0 -200)"/><path class="cls-2" d="M453.16,305.38h11.39c0,2.86,2.21,4.26,4.72,4.26,2.32,0,4.53-1.23,4.53-3.42,0-2.52-3.12-3.24-6.94-4.17-5.79-1.44-13.19-3.21-13.19-12.34,0-7.89,5.8-12.41,15.25-12.41,9.61,0,15.12,4.93,15.12,13.09H473c0-2.54-1.89-3.73-4.18-3.73-2,0-3.86.85-3.86,2.73,0,2.27,3,3,6.8,4,5.9,1.52,13.61,3.49,13.61,12.65,0,8.75-6.73,13.29-16,13.29C459.5,319.3,453.16,314.12,453.16,305.38Z" transform="translate(0 -200)"/><path class="cls-3" d="M114.54,292c0-12.06,9.11-21.09,21.31-21.09,10.5,0,18.64,6.94,20.27,17.1H144.93a9.49,9.49,0,0,0-9.06-6.78c-5.67,0-9.83,4.56-9.83,10.77s4.16,10.68,9.83,10.68a9.22,9.22,0,0,0,9.07-7.35h11.29c-1.52,10.53-9.71,17.69-20.38,17.69C123.65,313,114.54,304,114.54,292Z" transform="translate(0 -200)"/><path class="cls-3" d="M187,301.85V312H161.51V271.89H172.7v30Z" transform="translate(0 -200)"/><path class="cls-3" d="M190.63,296.46V271.89h11.28v24.36c0,3.92,2.53,6.45,6.21,6.45s6.22-2.53,6.22-6.45V271.89h11.28v24.57c0,9.86-7.28,16.52-17.5,16.52S190.63,306.32,190.63,296.46Z" transform="translate(0 -200)"/><path class="cls-3" d="M258.29,290.8a10.54,10.54,0,0,1,6.15,9.75c0,6.49-5.61,11.41-13,11.41H233V271.89h18.11c7.1,0,12.29,4.33,12.29,10.25a10.2,10.2,0,0,1-5.07,8.66Zm-4.77,8.44c0-2.13-1.57-3.63-4-3.63h-6v7.29h6A3.62,3.62,0,0,0,253.52,299.24ZM252.88,284a3.39,3.39,0,0,0-3.74-3.49h-5.57v7h5.58a3.39,3.39,0,0,0,3.73-3.49Z" transform="translate(0 -200)"/><path class="cls-3" d="M269.81,296.46V271.89h11.28v24.36c0,3.92,2.53,6.45,6.21,6.45s6.21-2.53,6.21-6.45V271.89H304.8v24.57c0,9.86-7.28,16.52-17.5,16.52S269.81,306.32,269.81,296.46Z" transform="translate(0 -200)"/><path class="cls-3" d="M337.47,290.8a10.55,10.55,0,0,1,6.14,9.75c0,6.49-5.6,11.41-13,11.41H312.14V271.89h18.1c7.11,0,12.29,4.33,12.29,10.25a10.19,10.19,0,0,1-5.06,8.66Zm-4.78,8.44c0-2.13-1.56-3.63-3.95-3.63h-6v7.29h6A3.61,3.61,0,0,0,332.69,299.24Zm-4.37-18.76h-5.58v7h5.58a3.5,3.5,0,1,0,0-7Z" transform="translate(0 -200)"/><path class="cls-3" d="M374.74,290.8a10.55,10.55,0,0,1,6.14,9.75c0,6.49-5.6,11.41-13,11.41H349.41V271.89h18.1c7.11,0,12.29,4.33,12.29,10.25a10.19,10.19,0,0,1-5.06,8.66ZM370,299.24c0-2.13-1.56-3.63-3.95-3.63h-6v7.29h6A3.61,3.61,0,0,0,370,299.24Zm-4.37-18.76H360v7h5.58a3.5,3.5,0,1,0,0-7Z" transform="translate(0 -200)"/><path class="cls-3" d="M412.13,301.85V312H386.68V271.89h11.19v30Z" transform="translate(0 -200)"/><path class="cls-3" d="M443.21,302.39V312H417.08V271.89h25.64v9.54H428.07v5.9h13.16v9.06H428.07v6Z" transform="translate(0 -200)"/><path class="cls-3" d="M447.59,299H459c0,2.86,2.21,4.26,4.73,4.26,2.31,0,4.52-1.23,4.52-3.42,0-2.52-3.12-3.24-6.94-4.17-5.79-1.44-13.18-3.21-13.18-12.34,0-7.89,5.8-12.41,15.25-12.41s15.11,4.93,15.11,13.09H467.4c0-2.54-1.89-3.73-4.18-3.73-2,0-3.85.85-3.85,2.72,0,2.28,3,3,6.79,4,5.9,1.52,13.61,3.5,13.61,12.65,0,8.75-6.72,13.29-16,13.29C453.93,312.94,447.59,307.76,447.59,299Z" transform="translate(0 -200)"/></svg>