<svg id="Layer_1" data-name="Layer 1" xmlns="http://www.w3.org/2000/svg" viewBox="0 0 600 600"><defs><style>.cls-1{fill:#ffa9c2;}.cls-2{fill:#ff83a7;}.cls-3{fill:#fff;}</style></defs><rect class="cls-1" width="600" height="600"/><path class="cls-2" d="M89.12,325.71c-16.22,0-28.33-12-28.33-27.94s12.11-28,28.33-28c14,0,24.78,9.22,26.95,22.73H101.19a12.6,12.6,0,0,0-12-9c-7.54,0-13.08,6.06-13.08,14.32S81.61,312,89.15,312c5.91,0,10.56-3.85,12.06-9.77h15c-2,14-12.91,23.52-27.1,23.52Z"/><path class="cls-2" d="M157.09,310.92v13.45H123.25V271.08h14.87v39.84Z"/><path class="cls-2" d="M162,303.75V271.08h15v32.4c0,5.21,3.36,8.57,8.26,8.57s8.26-3.36,8.26-8.57v-32.4h15v32.67c0,13.11-9.68,22-23.26,22S162,316.86,162,303.75Z"/><path class="cls-2" d="M251.94,296.23a14,14,0,0,1,8.17,13c0,8.64-7.45,15.18-17.29,15.18H218.26V271.08h24.07c9.45,0,16.34,5.76,16.34,13.64a13.55,13.55,0,0,1-6.74,11.51Zm-6.35,11.22c0-2.83-2.08-4.83-5.26-4.83h-8v9.69h8C243.51,312.31,245.59,310.32,245.59,307.45Zm-.85-20.3c0-2.77-1.89-4.64-5-4.64h-7.42v9.28h7.42c3.07,0,5-1.88,5-4.64Z"/><path class="cls-2" d="M267.25,303.75V271.08h15v32.4c0,5.21,3.35,8.57,8.26,8.57s8.25-3.36,8.25-8.57v-32.4h15v32.67c0,13.11-9.68,22-23.26,22S267.25,316.86,267.25,303.75Z"/><path class="cls-2" d="M357.22,296.23a14,14,0,0,1,8.18,13c0,8.64-7.46,15.18-17.29,15.18H323.55V271.08h24.07c9.45,0,16.34,5.76,16.34,13.64a13.58,13.58,0,0,1-6.74,11.51Zm-6.34,11.22c0-2.83-2.08-4.83-5.26-4.83h-8v9.69h8C348.8,312.31,350.88,310.32,350.88,307.45Zm-.85-20.3c0-2.77-1.9-4.64-5-4.64h-7.42v9.28h7.42c3.07,0,5-1.88,5-4.64Z"/><path class="cls-2" d="M406.78,296.23a14,14,0,0,1,8.18,13c0,8.64-7.46,15.18-17.29,15.18H373.11V271.08h24.07c9.44,0,16.34,5.76,16.34,13.64a13.58,13.58,0,0,1-6.74,11.51Zm-6.35,11.22c0-2.83-2.07-4.83-5.25-4.83h-8v9.69h8C398.36,312.31,400.43,310.32,400.43,307.45Zm-.84-20.3c0-2.77-1.9-4.64-5-4.64H387.2v9.28h7.42c3.07,0,5-1.88,5-4.64Z"/><path class="cls-2" d="M456.5,310.92v13.45H422.66V271.08h14.88v39.84Z"/><path class="cls-2" d="M497.83,311.63v12.74H463.09V271.08h34.1v12.69H477.71v7.84h17.5v12.05h-17.5v8Z"/><path class="cls-2" d="M503.66,307.16h15.15c0,3.81,2.94,5.66,6.28,5.66,3.08,0,6-1.64,6-4.55,0-3.34-4.14-4.31-9.22-5.54-7.7-1.92-17.53-4.27-17.53-16.41,0-10.49,7.71-16.5,20.27-16.5,12.78,0,20.11,6.56,20.11,17.4H530c0-3.37-2.51-5-5.55-5-2.62,0-5.13,1.13-5.13,3.62,0,3,4,4,9,5.29,7.85,2,18.1,4.64,18.1,16.81,0,11.64-8.94,17.68-21.31,17.68C512.09,325.67,503.66,318.77,503.66,307.16Z"/><path class="cls-3" d="M81.72,317.26c-16.22,0-28.33-12-28.33-27.95s12.11-28,28.33-28c14,0,24.78,9.22,27,22.73H93.79a12.6,12.6,0,0,0-12-9c-7.54,0-13.08,6.07-13.08,14.32s5.54,14.2,13.08,14.2c5.91,0,10.56-3.86,12-9.78h15c-2,14-12.91,23.52-27.1,23.52Z"/><path class="cls-3" d="M149.69,302.46v13.45H115.85V262.62h14.87v39.84Z"/><path class="cls-3" d="M154.56,295.29V262.62h15V295c0,5.21,3.35,8.57,8.26,8.57s8.26-3.36,8.26-8.57v-32.4h15v32.67c0,13.11-9.68,22-23.26,22S154.56,308.4,154.56,295.29Z"/><path class="cls-3" d="M244.54,287.77a14,14,0,0,1,8.17,13c0,8.64-7.45,15.18-17.29,15.18H210.86V262.62h24.07c9.45,0,16.34,5.76,16.34,13.64a13.58,13.58,0,0,1-6.74,11.51ZM238.19,299c0-2.83-2.08-4.83-5.26-4.83h-8v9.69h8C236.11,303.85,238.19,301.86,238.19,299Zm-.85-20.3c0-2.77-1.9-4.64-5-4.64H225v9.28h7.41c3.07,0,5-1.88,5-4.64Z"/><path class="cls-3" d="M259.85,295.29V262.62h15V295c0,5.21,3.35,8.57,8.25,8.57s8.26-3.36,8.26-8.57v-32.4h15v32.67c0,13.11-9.68,22-23.27,22S259.85,308.4,259.85,295.29Z"/><path class="cls-3" d="M349.82,287.77a14,14,0,0,1,8.17,13c0,8.64-7.45,15.18-17.28,15.18H316.15V262.62h24.06c9.45,0,16.35,5.76,16.35,13.64a13.58,13.58,0,0,1-6.74,11.51ZM343.47,299c0-2.83-2.07-4.83-5.25-4.83h-8v9.69h8C341.4,303.85,343.47,301.86,343.47,299Zm-.85-20.3c0-2.77-1.89-4.64-5-4.64h-7.42v9.28h7.42c3.07,0,5-1.88,5-4.64Z"/><path class="cls-3" d="M399.38,287.77a14,14,0,0,1,8.17,13c0,8.64-7.45,15.18-17.28,15.18H365.71V262.62h24.06c9.45,0,16.35,5.76,16.35,13.64a13.58,13.58,0,0,1-6.74,11.51ZM393,299c0-2.83-2.07-4.83-5.25-4.83h-8v9.69h8C391,303.85,393,301.86,393,299Zm-.85-20.3c0-2.77-1.89-4.64-5-4.64H379.8v9.28h7.42c3.07,0,5-1.88,5-4.64Z"/><path class="cls-3" d="M449.1,302.46v13.45H415.26V262.62h14.88v39.84Z"/><path class="cls-3" d="M490.43,303.17v12.74H455.69V262.62h34.1v12.69H470.3v7.84h17.51V295.2H470.3v8Z"/><path class="cls-3" d="M496.26,298.7h15.15c0,3.81,2.93,5.66,6.28,5.66,3.08,0,6-1.64,6-4.55,0-3.34-4.15-4.31-9.22-5.54-7.7-1.91-17.53-4.27-17.53-16.4,0-10.5,7.71-16.51,20.27-16.51,12.78,0,20.1,6.56,20.1,17.4H522.6c0-3.37-2.51-4.95-5.55-4.95-2.62,0-5.13,1.13-5.13,3.62,0,3,4,4,9,5.29,7.85,2,18.1,4.64,18.1,16.81,0,11.64-8.94,17.68-21.32,17.68C504.69,317.21,496.26,310.32,496.26,298.7Z"/></svg>