<svg xmlns="http://www.w3.org/2000/svg" viewBox="0 0 600 600"><defs><style>.cls-1{fill:#ffa9c2;}.cls-2{fill:#f1f2f2;}</style></defs><g id="Layer_2" data-name="Layer 2"><rect class="cls-1" width="600" height="600"/></g><g id="Layer_1" data-name="Layer 1"><path class="cls-2" d="M503,300c0,5.84-.22,11.68-.67,17.51q-.33,4.49-.86,9c-.08.69-.17,1.37-.25,2.06-.29,2.68.46-3.29.41-3-.28,1.57-.47,3.17-.72,4.74a225.77,225.77,0,0,1-8.12,33.54c-1.73,5.31-3.8,10.46-5.75,15.68-.91,2.44,1.27-2.93,1.14-2.66-.29.59-.52,1.22-.79,1.83-.54,1.21-1.08,2.43-1.63,3.63-1.2,2.61-2.44,5.2-3.74,7.77a226.28,226.28,0,0,1-17.32,28.77c-1.51,2.14-3.11,4.23-4.66,6.35s1.95-2.48,1.75-2.26c-.44.48-.81,1-1.22,1.54-1,1.19-1.92,2.39-2.9,3.56q-5.44,6.56-11.37,12.69-5.7,5.89-11.8,11.36-2.92,2.63-5.94,5.15l-3,2.5c-.51.41-1,.81-1.54,1.23-3.66,3,3.5-2.59,1.23-.94a262.58,262.58,0,0,1-27.53,18q-7.53,4.17-15.36,7.76c-1.2.55-2.42,1.09-3.63,1.63-.61.27-1.24.5-1.83.79-.27.13,5.1-2.05,2.66-1.14-2.71,1-5.37,2.14-8.09,3.13a225.62,225.62,0,0,1-33.06,9.28q-4,.8-8.07,1.46c-1.35.22-2.71.4-4.06.62-2.67.43,3.29-.42,3-.39-.91.08-1.83.23-2.74.33-6,.7-12,1.16-18,1.38a230.1,230.1,0,0,1-34.92-1.38l-2.06-.25c-2.68-.29,3.29.46,3,.41-1.57-.28-3.17-.47-4.74-.72-2.92-.48-5.84-1-8.73-1.6q-8.3-1.68-16.45-4t-16-5.16c-2.72-1-5.38-2.12-8.09-3.13-2.44-.91,2.93,1.27,2.66,1.14-.59-.29-1.22-.52-1.83-.79-1.41-.63-2.83-1.26-4.24-1.91a226.23,226.23,0,0,1-29.41-16.33c-4.58-3-8.87-6.42-13.39-9.5-.25-.17,4.23,3.38,2.26,1.73-.5-.42-1-.81-1.54-1.22-1-.82-2-1.65-3-2.49q-3.28-2.73-6.45-5.57a227.84,227.84,0,0,1-23.17-24.05c-.84-1-1.67-2-2.49-3-.41-.51-.8-1-1.22-1.54-1.65-2,1.9,2.51,1.73,2.26-1.72-2.52-3.67-4.91-5.43-7.41q-4.74-6.72-9-13.78t-8-14.45q-1.8-3.55-3.46-7.16c-.65-1.41-1.28-2.83-1.91-4.24-2.13-4.8,1.51,3.83.1.21A248,248,0,0,1,102.45,347q-2.07-8.61-3.47-17.36c-.21-1.35-.37-2.72-.61-4.07-.05-.32.7,5.65.41,3-.08-.69-.17-1.37-.25-2.06q-.52-4.47-.86-9a230.11,230.11,0,0,1,0-35.71q.33-4.14.81-8.27c.08-.69.17-1.37.25-2.06.29-2.68-.46,3.29-.41,3,.28-1.57.47-3.17.72-4.74q1.43-8.74,3.52-17.34C105.28,241.43,109,231,113,220.48c.91-2.44-1.27,2.93-1.14,2.66.38-.79.71-1.63,1.06-2.44.53-1.21,1.08-2.42,1.64-3.63,1.2-2.6,2.45-5.19,3.76-7.75q3.73-7.35,8-14.42,4.42-7.32,9.39-14.29c1.52-2.14,3.2-4.18,4.67-6.34.17-.25-3.38,4.23-1.73,2.26.42-.5.81-1,1.22-1.54q1.44-1.78,2.91-3.55a229.74,229.74,0,0,1,23.23-24q2.94-2.61,6-5.13c1-.84,2-1.67,3-2.49.51-.41,1-.8,1.54-1.22,2.29-1.91-4.14,3.09-1.74,1.34,4.43-3.23,8.83-6.47,13.42-9.47a226.42,226.42,0,0,1,29.47-16.25c1.2-.55,2.42-1.09,3.63-1.63.61-.27,1.24-.5,1.83-.79.27-.13-5.1,2.05-2.66,1.14,2.92-1.09,5.78-2.3,8.71-3.36q7.89-2.85,16-5.11c5.43-1.52,10.93-2.83,16.46-3.94,2.9-.58,5.82-1.1,8.74-1.57,1.35-.21,2.72-.37,4.07-.61.32-.05-5.65.7-3,.41.92-.1,1.83-.23,2.74-.33a230.36,230.36,0,0,1,34.94-1.27q9,.36,18,1.43c.68.08,1.37.19,2,.25.32,0-5.64-.82-3-.39,1.35.22,2.71.4,4.06.62,2.92.48,5.84,1,8.73,1.6a225.21,225.21,0,0,1,33,9.37c2.51.92,5,2,7.46,2.9s-2.93-1.27-2.66-1.14c.59.29,1.22.52,1.83.79,1.41.63,2.83,1.26,4.24,1.91q7.8,3.6,15.33,7.79c9.65,5.39,18.42,11.76,27.47,18-6-4.13-1.6-1.22-.21-.1l3,2.5q3.27,2.73,6.43,5.59c4.06,3.65,8,7.46,11.76,11.39q5.91,6.15,11.34,12.72c.83,1,1.65,2,2.48,3.06.41.5.78,1.06,1.22,1.54.2.22-3.26-4.34-1.75-2.26,1.68,2.3,3.41,4.56,5,6.89a225.72,225.72,0,0,1,17.24,28.83q1.79,3.56,3.44,7.17c.55,1.2,1.09,2.42,1.63,3.63,2.13,4.8-1.51-3.83-.1-.21,2.11,5.4,4.15,10.81,5.91,16.34A226.83,226.83,0,0,1,501,270.37c.21,1.35.37,2.72.61,4.07.05.32-.7-5.65-.41-3,.08.69.17,1.37.25,2.06q.52,4.47.86,9c.45,5.83.65,11.67.67,17.51,0,12.55,11,24.58,24,24s24-10.55,24-24c-.16-50.9-15.63-102.05-45.23-143.62a256.66,256.66,0,0,0-120.95-92.6c-48.48-17.86-103.41-19.42-153.06-5.39-48,13.58-92.47,42-124.21,80.63A255.33,255.33,0,0,0,49.72,281.8c-4,51.07,8.64,103.7,35.12,147.53,25.69,42.52,64.43,78,109.82,98.43a256.45,256.45,0,0,0,156.47,18c49.16-9.83,95.43-35.78,130-72S539.91,390.65,547.51,341A275.16,275.16,0,0,0,551,300c0-12.55-11.07-24.58-24-24S503,286.54,503,300Z"/><path class="cls-2" d="M302.67,183.87a137.89,137.89,0,0,1,14.62,3.58q3.6,1.11,7.13,2.41l2.81,1.07c5,1.9-5.05-2.33-.18-.08a148.13,148.13,0,0,1,25.38,14.69c1.27.92,3.92,3.54-.65-.57.74.67,1.57,1.25,2.35,1.89,1.94,1.59,3.83,3.24,5.69,4.93a140.53,140.53,0,0,1,10.53,10.75c1.66,1.88,3.13,4,4.82,5.79-.77-.83-2.85-3.83-1-1.26.87,1.23,1.75,2.44,2.6,3.69a138.12,138.12,0,0,1,7.77,12.89c5.91,11.1,22.23,15.45,32.84,8.61,11.27-7.27,14.93-21,8.61-32.83-22.18-41.58-64.17-73-110.54-81.85-12.29-2.34-26.49,3.43-29.52,16.77-2.7,11.83,3.57,27,16.76,29.52Z"/><path class="cls-2" d="M433,337c12.55,0,24.58-11,24-24s-10.55-24-24-24c-12.55,0-24.58,11-24,24s10.55,24,24,24Z"/></g></svg>